# xmcd
#
# Track frame offsets:
# 150
# 18924
# 52971
# 79856
# 101398
# 120547
# 141975
# 175864
# 208879
# 230736
# 260557
#
# Disc length: 3928 seconds
#
#
# Revision: 1
# Processed by: cddbd v1.5.2PL0 Copyright (c) Steve Scherf et al.
# Submitted via: FreeRIP 2.945 
#
DISCID=950f560b
DTITLE=Cracker Blues - Demo
DYEAR=1900
DGENRE=Blues
TTITLE0=Allergic to Work (Ramsey)
TTITLE1=Roadhouse Blues (Doors)
TTITLE2=Mississipi Kid (Lynyrd)
TTITLE3=Bad to the Bone (Thorogood)
TTITLE4=Sunshine of you Love (Cream)
TTITLE5=Pride ans Joy (Vaughan)
TTITLE6=Red House (Hendrix)
TTITLE7=Voodoo Chile (Hendrix)
TTITLE8=Little Wing (Hendrix)
TTITLE9=Hoochie Coochie Man 9Waters - Ao vivo)
TTITLE10=The Thrill is Gone (B. B. King - Ao vivo)
EXTD=CrackerBlues
EXTT0=
EXTT1=
EXTT2=
EXTT3=
EXTT4=
EXTT5=
EXTT6=
EXTT7=
EXTT8=
EXTT9=
EXTT10=
PLAYORDER=
